<svg version="1.1" id="Layer_1" xmlns="http://www.w3.org/2000/svg" xmlns:xlink="http://www.w3.org/1999/xlink" x="0px" y="0px"
	 width="100%" viewBox="0 0 237 214" enable-background="new 0 0 237 214" xml:space="preserve">
<path fill="#FCFCFC" opacity="1.000000" stroke="none" 
	d="
M163.000000,215.000000 
	C108.666672,215.000000 54.833340,215.000000 1.000007,215.000000 
	C1.000005,143.666672 1.000005,72.333351 1.000002,1.000017 
	C79.999992,1.000011 158.999985,1.000011 237.999969,1.000006 
	C237.999985,72.333321 237.999985,143.666641 238.000000,214.999969 
	C213.166672,215.000000 188.333328,215.000000 163.000000,215.000000 
M165.712387,167.442383 
	C162.362228,170.734787 159.012070,174.027191 154.618179,178.345337 
	C154.425842,175.030014 154.239319,173.290512 154.237198,171.550781 
	C154.215256,153.552582 154.306717,135.553406 154.104904,117.557419 
	C154.082504,115.560188 152.895752,112.554008 151.409821,111.887962 
	C149.976959,111.245728 147.095474,112.572983 145.494553,113.845406 
	C142.646820,116.108803 140.329453,119.029022 137.711868,121.594536 
	C130.857803,128.312271 123.961464,134.986862 117.398033,141.371201 
	C108.169472,132.381058 99.084503,123.350441 89.742157,114.594452 
	C88.040726,112.999802 85.288216,112.526619 83.020912,111.535736 
	C82.092445,113.829994 80.387756,116.114487 80.358772,118.420052 
	C80.134613,136.248825 80.234467,154.081665 80.233963,171.913254 
	C80.233917,173.614609 80.233963,175.315964 80.233963,178.168777 
	C77.699097,175.951050 76.330139,174.535049 74.752037,173.413269 
	C69.856606,169.933472 68.329918,165.433899 68.424179,159.341858 
	C68.792824,135.516571 68.556259,111.682175 68.596230,87.851250 
	C68.601677,84.604485 68.282692,81.363396 64.270638,81.331001 
	C60.216572,81.298264 59.875732,84.615723 59.876869,87.814850 
	C59.886242,114.145599 59.794640,140.477112 60.024059,166.805862 
	C60.045731,169.293106 61.501835,172.287003 63.250141,174.143219 
	C68.612785,179.836884 74.494675,185.037689 80.069893,190.536362 
	C83.404785,193.825485 86.400558,193.503372 89.544411,190.312408 
	C93.871483,185.920502 97.854546,181.022690 102.773926,177.418411 
	C111.283592,171.183609 108.596336,162.627289 108.436295,154.609512 
	C108.412567,153.420944 105.754860,151.332443 104.383423,151.386185 
	C102.958946,151.442017 101.105682,153.353821 100.383118,154.895905 
	C99.671257,156.415146 99.820618,158.547668 100.146973,160.308258 
	C101.793213,169.189362 94.787697,172.432007 89.516251,177.918213 
	C89.516251,160.472488 89.516251,144.077286 89.516251,127.175438 
	C97.364952,134.924850 104.709900,142.150970 112.024025,149.408173 
	C116.425865,153.775726 118.024269,153.866943 122.317902,149.566238 
	C128.675293,143.198380 134.954315,136.752304 141.292542,130.365189 
	C142.345428,129.304169 143.529724,128.373566 145.111221,126.978867 
	C145.111221,144.358826 145.111221,160.682846 145.111221,177.787384 
	C138.513870,172.188965 131.939362,167.643494 134.148193,158.155685 
	C134.366699,157.217194 134.489655,155.871643 133.992599,155.228180 
	C132.803986,153.689453 131.213181,151.391678 129.795395,151.399246 
	C128.364868,151.406876 126.021042,153.644913 125.714966,155.223328 
	C125.060074,158.600677 125.637802,162.195724 125.384796,165.677933 
	C125.093460,169.687683 126.540619,172.642685 129.505157,175.314896 
	C134.700485,179.997986 139.618607,184.987762 144.678452,189.822266 
	C149.376648,194.311264 150.571640,194.291824 155.405640,189.674042 
	C160.465958,184.840088 165.374329,179.837540 170.595505,175.185181 
	C173.595749,172.511826 174.728638,169.558563 174.716660,165.567749 
	C174.621140,133.738205 174.759506,101.907852 174.603836,70.078827 
	C174.591675,67.594246 172.893860,65.117905 171.979477,62.637741 
	C169.581604,63.698776 166.630920,64.193604 164.872910,65.910004 
	C150.206985,80.228821 135.765625,94.777527 121.239243,109.239532 
	C119.994751,110.478508 118.625656,111.592331 117.495728,112.602272 
	C101.882622,96.867516 86.653732,81.519966 71.548042,66.296577 
	C73.612030,64.030235 76.035057,61.369640 78.671013,58.475258 
	C79.918793,59.595387 81.056282,60.528851 82.094482,61.562073 
	C92.252975,71.671883 102.451164,81.742920 112.509308,91.951836 
	C115.776581,95.268074 118.671822,95.398155 121.874046,92.052025 
	C124.408241,89.403938 127.064621,86.873184 129.646606,84.270332 
	C138.191635,75.656219 146.727554,67.033051 155.385117,58.294113 
	C156.654175,59.297138 157.420502,59.888344 158.171143,60.498829 
	C160.365082,62.283134 163.135361,63.161194 164.608322,60.480915 
	C165.466293,58.919693 164.611084,55.974960 163.715454,54.025410 
	C162.933044,52.322266 160.999420,51.156288 159.602890,49.725174 
	C156.989517,47.047047 154.366272,47.153534 151.773026,49.706909 
	C148.210709,53.214451 144.659531,56.733974 141.146652,60.290901 
	C133.329666,68.205902 125.539444,76.147331 117.493111,84.327255 
	C115.597450,82.553154 114.254456,81.361641 112.984177,80.097076 
	C103.063377,70.220901 93.096527,60.389748 83.279259,50.411518 
	C80.020950,47.099789 77.216660,46.872555 73.990196,50.334095 
	C70.583229,53.989281 66.980453,57.462006 63.461765,61.012993 
	C58.676331,65.842361 58.660656,67.110451 63.584431,72.024673 
	C79.626083,88.035194 95.683449,104.029991 111.750031,120.015488 
	C116.499718,124.741219 118.120560,124.749527 122.878792,120.015488 
	C135.637817,107.321304 148.364258,94.594345 161.114471,81.891266 
	C162.328781,80.681435 163.619171,79.547974 165.862061,77.459068 
	C165.862061,108.107552 165.862061,137.363907 165.712387,167.442383 
z"/>
<path fill="#101010" opacity="1.000000" stroke="none" 
	d="
M165.787231,167.031311 
	C165.862061,137.363907 165.862061,108.107552 165.862061,77.459068 
	C163.619171,79.547974 162.328781,80.681435 161.114471,81.891266 
	C148.364258,94.594345 135.637817,107.321304 122.878792,120.015488 
	C118.120560,124.749527 116.499718,124.741219 111.750031,120.015488 
	C95.683449,104.029991 79.626083,88.035194 63.584431,72.024673 
	C58.660656,67.110451 58.676331,65.842361 63.461765,61.012993 
	C66.980453,57.462006 70.583229,53.989281 73.990196,50.334095 
	C77.216660,46.872555 80.020950,47.099789 83.279259,50.411518 
	C93.096527,60.389748 103.063377,70.220901 112.984177,80.097076 
	C114.254456,81.361641 115.597450,82.553154 117.493111,84.327255 
	C125.539444,76.147331 133.329666,68.205902 141.146652,60.290901 
	C144.659531,56.733974 148.210709,53.214451 151.773026,49.706909 
	C154.366272,47.153534 156.989517,47.047047 159.602890,49.725174 
	C160.999420,51.156288 162.933044,52.322266 163.715454,54.025410 
	C164.611084,55.974960 165.466293,58.919693 164.608322,60.480915 
	C163.135361,63.161194 160.365082,62.283134 158.171143,60.498829 
	C157.420502,59.888344 156.654175,59.297138 155.385117,58.294113 
	C146.727554,67.033051 138.191635,75.656219 129.646606,84.270332 
	C127.064621,86.873184 124.408241,89.403938 121.874046,92.052025 
	C118.671822,95.398155 115.776581,95.268074 112.509308,91.951836 
	C102.451164,81.742920 92.252975,71.671883 82.094482,61.562073 
	C81.056282,60.528851 79.918793,59.595387 78.671013,58.475258 
	C76.035057,61.369640 73.612030,64.030235 71.548042,66.296577 
	C86.653732,81.519966 101.882622,96.867516 117.495728,112.602272 
	C118.625656,111.592331 119.994751,110.478508 121.239243,109.239532 
	C135.765625,94.777527 150.206985,80.228821 164.872910,65.910004 
	C166.630920,64.193604 169.581604,63.698776 171.979492,62.637741 
	C172.893860,65.117905 174.591675,67.594246 174.603836,70.078827 
	C174.759506,101.907852 174.621140,133.738205 174.716660,165.567749 
	C174.728638,169.558563 173.595749,172.511826 170.595505,175.185181 
	C165.374329,179.837540 160.465958,184.840088 155.405640,189.674042 
	C150.571640,194.291824 149.376648,194.311264 144.678452,189.822266 
	C139.618607,184.987762 134.700485,179.997986 129.505157,175.314896 
	C126.540619,172.642685 125.093460,169.687683 125.384796,165.677933 
	C125.637802,162.195724 125.060074,158.600677 125.714966,155.223328 
	C126.021042,153.644913 128.364868,151.406876 129.795395,151.399246 
	C131.213181,151.391678 132.803986,153.689453 133.992599,155.228180 
	C134.489655,155.871643 134.366699,157.217194 134.148193,158.155685 
	C131.939362,167.643494 138.513870,172.188965 145.111221,177.787384 
	C145.111221,160.682846 145.111221,144.358826 145.111221,126.978867 
	C143.529724,128.373566 142.345428,129.304169 141.292542,130.365189 
	C134.954315,136.752304 128.675293,143.198380 122.317902,149.566238 
	C118.024269,153.866943 116.425865,153.775726 112.024025,149.408173 
	C104.709900,142.150970 97.364952,134.924850 89.516251,127.175438 
	C89.516251,144.077286 89.516251,160.472488 89.516251,177.918213 
	C94.787697,172.432007 101.793213,169.189362 100.146973,160.308258 
	C99.820618,158.547668 99.671257,156.415146 100.383118,154.895905 
	C101.105682,153.353821 102.958946,151.442017 104.383423,151.386185 
	C105.754860,151.332443 108.412567,153.420944 108.436295,154.609512 
	C108.596336,162.627289 111.283592,171.183609 102.773926,177.418411 
	C97.854546,181.022690 93.871483,185.920502 89.544411,190.312408 
	C86.400558,193.503372 83.404785,193.825485 80.069893,190.536362 
	C74.494675,185.037689 68.612785,179.836884 63.250141,174.143219 
	C61.501835,172.287003 60.045731,169.293106 60.024059,166.805862 
	C59.794640,140.477112 59.886242,114.145599 59.876869,87.814850 
	C59.875732,84.615723 60.216572,81.298264 64.270638,81.331001 
	C68.282692,81.363396 68.601677,84.604485 68.596230,87.851250 
	C68.556259,111.682175 68.792824,135.516571 68.424179,159.341858 
	C68.329918,165.433899 69.856606,169.933472 74.752037,173.413269 
	C76.330139,174.535049 77.699097,175.951050 80.233963,178.168777 
	C80.233963,175.315964 80.233917,173.614609 80.233963,171.913254 
	C80.234467,154.081665 80.134613,136.248825 80.358772,118.420052 
	C80.387756,116.114487 82.092445,113.829994 83.020912,111.535736 
	C85.288216,112.526619 88.040726,112.999802 89.742157,114.594452 
	C99.084503,123.350441 108.169472,132.381058 117.398033,141.371201 
	C123.961464,134.986862 130.857803,128.312271 137.711868,121.594536 
	C140.329453,119.029022 142.646820,116.108803 145.494553,113.845406 
	C147.095474,112.572983 149.976959,111.245728 151.409821,111.887962 
	C152.895752,112.554008 154.082504,115.560188 154.104904,117.557419 
	C154.306717,135.553406 154.215256,153.552582 154.237198,171.550781 
	C154.239319,173.290512 154.425842,175.030014 154.618179,178.345337 
	C159.012070,174.027191 162.362228,170.734787 165.787231,167.031311 
z"/>
</svg>